<mxfile host="65bd71144e">
    <diagram id="uTb7-vCAJe07za8oZE6z" name="Page-1">
        <mxGraphModel dx="230" dy="158" grid="1" gridSize="10" guides="1" tooltips="1" connect="1" arrows="1" fold="1" page="1" pageScale="1" pageWidth="2400" pageHeight="1200" math="1" shadow="0">
            <root>
                <mxCell id="0"/>
                <mxCell id="1" parent="0"/>
                <mxCell id="1203" value="" style="shape=cube;whiteSpace=wrap;html=1;boundedLbl=1;backgroundOutline=1;darkOpacity=0.05;darkOpacity2=0.1;size=10;" parent="1" vertex="1">
                    <mxGeometry x="180" y="245" width="30" height="30" as="geometry"/>
                </mxCell>
                <mxCell id="1204" value="" style="shape=cube;whiteSpace=wrap;html=1;boundedLbl=1;backgroundOutline=1;darkOpacity=0.05;darkOpacity2=0.1;size=10;" parent="1" vertex="1">
                    <mxGeometry x="190" y="255" width="30" height="30" as="geometry"/>
                </mxCell>
                <mxCell id="1205" value="" style="shape=cube;whiteSpace=wrap;html=1;boundedLbl=1;backgroundOutline=1;darkOpacity=0.05;darkOpacity2=0.1;size=10;" parent="1" vertex="1">
                    <mxGeometry x="190" y="255" width="30" height="30" as="geometry"/>
                </mxCell>
                <mxCell id="1206" value="" style="shape=cube;whiteSpace=wrap;html=1;boundedLbl=1;backgroundOutline=1;darkOpacity=0.05;darkOpacity2=0.1;size=10;" parent="1" vertex="1">
                    <mxGeometry x="200" y="265" width="30" height="30" as="geometry"/>
                </mxCell>
                <mxCell id="1207" value="" style="shape=cube;whiteSpace=wrap;html=1;boundedLbl=1;backgroundOutline=1;darkOpacity=0.05;darkOpacity2=0.1;size=10;" parent="1" vertex="1">
                    <mxGeometry x="210" y="275" width="30" height="30" as="geometry"/>
                </mxCell>
                <mxCell id="1842" style="edgeStyle=none;html=1;exitX=0;exitY=0;exitDx=0;exitDy=0;exitPerimeter=0;entryX=0;entryY=0;entryDx=0;entryDy=0;entryPerimeter=0;strokeWidth=2;endArrow=none;endFill=0;fillColor=#ffe6cc;strokeColor=#FF9933;dashed=1;dashPattern=1 1;" edge="1" parent="1" source="1784" target="1833">
                    <mxGeometry relative="1" as="geometry"/>
                </mxCell>
                <mxCell id="1784" value="" style="shape=cube;whiteSpace=wrap;html=1;boundedLbl=1;backgroundOutline=1;darkOpacity=0.05;darkOpacity2=0.1;size=10;" vertex="1" parent="1">
                    <mxGeometry x="160" y="245" width="30" height="30" as="geometry"/>
                </mxCell>
                <mxCell id="1785" value="" style="shape=cube;whiteSpace=wrap;html=1;boundedLbl=1;backgroundOutline=1;darkOpacity=0.05;darkOpacity2=0.1;size=10;" vertex="1" parent="1">
                    <mxGeometry x="170" y="255" width="30" height="30" as="geometry"/>
                </mxCell>
                <mxCell id="1786" value="" style="shape=cube;whiteSpace=wrap;html=1;boundedLbl=1;backgroundOutline=1;darkOpacity=0.05;darkOpacity2=0.1;size=10;" vertex="1" parent="1">
                    <mxGeometry x="170" y="255" width="30" height="30" as="geometry"/>
                </mxCell>
                <mxCell id="1787" value="" style="shape=cube;whiteSpace=wrap;html=1;boundedLbl=1;backgroundOutline=1;darkOpacity=0.05;darkOpacity2=0.1;size=10;" vertex="1" parent="1">
                    <mxGeometry x="180" y="265" width="30" height="30" as="geometry"/>
                </mxCell>
                <mxCell id="1788" value="" style="shape=cube;whiteSpace=wrap;html=1;boundedLbl=1;backgroundOutline=1;darkOpacity=0.05;darkOpacity2=0.1;size=10;" vertex="1" parent="1">
                    <mxGeometry x="190" y="275" width="30" height="30" as="geometry"/>
                </mxCell>
                <mxCell id="1789" value="" style="shape=cube;whiteSpace=wrap;html=1;boundedLbl=1;backgroundOutline=1;darkOpacity=0.05;darkOpacity2=0.1;size=10;fillColor=#ffe6cc;strokeColor=#000000;opacity=80;" vertex="1" parent="1">
                    <mxGeometry x="140" y="245" width="30" height="30" as="geometry"/>
                </mxCell>
                <mxCell id="1790" value="" style="shape=cube;whiteSpace=wrap;html=1;boundedLbl=1;backgroundOutline=1;darkOpacity=0.05;darkOpacity2=0.1;size=10;" vertex="1" parent="1">
                    <mxGeometry x="150" y="255" width="30" height="30" as="geometry"/>
                </mxCell>
                <mxCell id="1791" value="" style="shape=cube;whiteSpace=wrap;html=1;boundedLbl=1;backgroundOutline=1;darkOpacity=0.05;darkOpacity2=0.1;size=10;fillColor=#ffe6cc;strokeColor=#000000;opacity=80;" vertex="1" parent="1">
                    <mxGeometry x="150" y="255" width="30" height="30" as="geometry"/>
                </mxCell>
                <mxCell id="1792" value="" style="shape=cube;whiteSpace=wrap;html=1;boundedLbl=1;backgroundOutline=1;darkOpacity=0.05;darkOpacity2=0.1;size=10;fillColor=#ffe6cc;strokeColor=#000000;opacity=80;" vertex="1" parent="1">
                    <mxGeometry x="160" y="265" width="30" height="30" as="geometry"/>
                </mxCell>
                <mxCell id="1841" style="edgeStyle=none;html=1;exitX=0;exitY=0;exitDx=30;exitDy=10;exitPerimeter=0;strokeWidth=2;endArrow=none;endFill=0;fillColor=#ffe6cc;strokeColor=#FF9933;entryX=1;entryY=1;entryDx=0;entryDy=0;entryPerimeter=0;dashed=1;dashPattern=1 1;" edge="1" parent="1" source="1793" target="1833">
                    <mxGeometry relative="1" as="geometry">
                        <mxPoint x="160" y="200" as="targetPoint"/>
                    </mxGeometry>
                </mxCell>
                <mxCell id="1793" value="" style="shape=cube;whiteSpace=wrap;html=1;boundedLbl=1;backgroundOutline=1;darkOpacity=0.05;darkOpacity2=0.1;size=10;fillColor=#ffe6cc;strokeColor=#000000;opacity=80;" vertex="1" parent="1">
                    <mxGeometry x="170" y="275" width="30" height="30" as="geometry"/>
                </mxCell>
                <mxCell id="1794" value="" style="shape=cube;whiteSpace=wrap;html=1;boundedLbl=1;backgroundOutline=1;darkOpacity=0.05;darkOpacity2=0.1;size=10;fillColor=#ffe6cc;strokeColor=#000000;opacity=80;" vertex="1" parent="1">
                    <mxGeometry x="120" y="245" width="30" height="30" as="geometry"/>
                </mxCell>
                <mxCell id="1795" value="" style="shape=cube;whiteSpace=wrap;html=1;boundedLbl=1;backgroundOutline=1;darkOpacity=0.05;darkOpacity2=0.1;size=10;" vertex="1" parent="1">
                    <mxGeometry x="130" y="255" width="30" height="30" as="geometry"/>
                </mxCell>
                <mxCell id="1796" value="" style="shape=cube;whiteSpace=wrap;html=1;boundedLbl=1;backgroundOutline=1;darkOpacity=0.05;darkOpacity2=0.1;size=10;fillColor=#ffe6cc;strokeColor=#000000;opacity=80;" vertex="1" parent="1">
                    <mxGeometry x="130" y="255" width="30" height="30" as="geometry"/>
                </mxCell>
                <mxCell id="1797" value="" style="shape=cube;whiteSpace=wrap;html=1;boundedLbl=1;backgroundOutline=1;darkOpacity=0.05;darkOpacity2=0.1;size=10;fillColor=#ffe6cc;strokeColor=#000000;opacity=80;" vertex="1" parent="1">
                    <mxGeometry x="140" y="265" width="30" height="30" as="geometry"/>
                </mxCell>
                <mxCell id="1798" value="" style="shape=cube;whiteSpace=wrap;html=1;boundedLbl=1;backgroundOutline=1;darkOpacity=0.05;darkOpacity2=0.1;size=10;fillColor=#ffe6cc;strokeColor=#000000;opacity=80;" vertex="1" parent="1">
                    <mxGeometry x="150" y="275" width="30" height="30" as="geometry"/>
                </mxCell>
                <mxCell id="1839" style="edgeStyle=none;html=1;exitX=0;exitY=0;exitDx=0;exitDy=0;exitPerimeter=0;entryX=0;entryY=0;entryDx=20;entryDy=0;entryPerimeter=0;fillColor=#ffe6cc;strokeColor=#FF9933;endArrow=none;endFill=0;strokeWidth=2;dashed=1;dashPattern=1 1;" edge="1" parent="1" source="1799" target="1834">
                    <mxGeometry relative="1" as="geometry"/>
                </mxCell>
                <mxCell id="1799" value="" style="shape=cube;whiteSpace=wrap;html=1;boundedLbl=1;backgroundOutline=1;darkOpacity=0.05;darkOpacity2=0.1;size=10;fillColor=#ffe6cc;strokeColor=#000000;opacity=80;" vertex="1" parent="1">
                    <mxGeometry x="100" y="245" width="30" height="30" as="geometry"/>
                </mxCell>
                <mxCell id="1800" value="" style="shape=cube;whiteSpace=wrap;html=1;boundedLbl=1;backgroundOutline=1;darkOpacity=0.05;darkOpacity2=0.1;size=10;" vertex="1" parent="1">
                    <mxGeometry x="110" y="255" width="30" height="30" as="geometry"/>
                </mxCell>
                <mxCell id="1801" value="" style="shape=cube;whiteSpace=wrap;html=1;boundedLbl=1;backgroundOutline=1;darkOpacity=0.05;darkOpacity2=0.1;size=10;fillColor=#ffe6cc;strokeColor=#000000;opacity=80;" vertex="1" parent="1">
                    <mxGeometry x="110" y="255" width="30" height="30" as="geometry"/>
                </mxCell>
                <mxCell id="1802" value="" style="shape=cube;whiteSpace=wrap;html=1;boundedLbl=1;backgroundOutline=1;darkOpacity=0.05;darkOpacity2=0.1;size=10;fillColor=#ffe6cc;strokeColor=#000000;opacity=80;" vertex="1" parent="1">
                    <mxGeometry x="120" y="265" width="30" height="30" as="geometry"/>
                </mxCell>
                <mxCell id="1803" value="" style="shape=cube;whiteSpace=wrap;html=1;boundedLbl=1;backgroundOutline=1;darkOpacity=0.05;darkOpacity2=0.1;size=10;fillColor=#ffe6cc;strokeColor=#000000;opacity=80;" vertex="1" parent="1">
                    <mxGeometry x="130" y="275" width="30" height="30" as="geometry"/>
                </mxCell>
                <mxCell id="1804" value="" style="shape=cube;whiteSpace=wrap;html=1;boundedLbl=1;backgroundOutline=1;darkOpacity=0.05;darkOpacity2=0.1;size=10;" vertex="1" parent="1">
                    <mxGeometry x="80" y="245" width="30" height="30" as="geometry"/>
                </mxCell>
                <mxCell id="1805" value="" style="shape=cube;whiteSpace=wrap;html=1;boundedLbl=1;backgroundOutline=1;darkOpacity=0.05;darkOpacity2=0.1;size=10;" vertex="1" parent="1">
                    <mxGeometry x="90" y="255" width="30" height="30" as="geometry"/>
                </mxCell>
                <mxCell id="1806" value="" style="shape=cube;whiteSpace=wrap;html=1;boundedLbl=1;backgroundOutline=1;darkOpacity=0.05;darkOpacity2=0.1;size=10;" vertex="1" parent="1">
                    <mxGeometry x="90" y="255" width="30" height="30" as="geometry"/>
                </mxCell>
                <mxCell id="1807" value="" style="shape=cube;whiteSpace=wrap;html=1;boundedLbl=1;backgroundOutline=1;darkOpacity=0.05;darkOpacity2=0.1;size=10;" vertex="1" parent="1">
                    <mxGeometry x="100" y="265" width="30" height="30" as="geometry"/>
                </mxCell>
                <mxCell id="1840" style="edgeStyle=none;html=1;exitX=0;exitY=0;exitDx=30;exitDy=10;exitPerimeter=0;entryX=0;entryY=0;entryDx=10;entryDy=30;entryPerimeter=0;endArrow=none;endFill=0;fillColor=#ffe6cc;strokeColor=#FF9933;strokeWidth=2;dashed=1;dashPattern=1 1;" edge="1" parent="1" source="1808" target="1833">
                    <mxGeometry relative="1" as="geometry"/>
                </mxCell>
                <mxCell id="1808" value="" style="shape=cube;whiteSpace=wrap;html=1;boundedLbl=1;backgroundOutline=1;darkOpacity=0.05;darkOpacity2=0.1;size=10;" vertex="1" parent="1">
                    <mxGeometry x="110" y="275" width="30" height="30" as="geometry"/>
                </mxCell>
                <mxCell id="1809" value="" style="shape=cube;whiteSpace=wrap;html=1;boundedLbl=1;backgroundOutline=1;darkOpacity=0.05;darkOpacity2=0.1;fillColor=#f5f5f5;strokeColor=#000000;size=10;fontColor=#333333;" vertex="1" parent="1">
                    <mxGeometry x="160" y="151" width="30" height="30" as="geometry"/>
                </mxCell>
                <mxCell id="1810" value="" style="shape=cube;whiteSpace=wrap;html=1;boundedLbl=1;backgroundOutline=1;darkOpacity=0.05;darkOpacity2=0.1;fillColor=#f5f5f5;strokeColor=#000000;size=10;fontColor=#333333;" vertex="1" parent="1">
                    <mxGeometry x="170" y="161" width="30" height="30" as="geometry"/>
                </mxCell>
                <mxCell id="1811" value="" style="shape=cube;whiteSpace=wrap;html=1;boundedLbl=1;backgroundOutline=1;darkOpacity=0.05;darkOpacity2=0.1;fillColor=#f5f5f5;strokeColor=#000000;size=10;fontColor=#333333;" vertex="1" parent="1">
                    <mxGeometry x="170" y="161" width="30" height="30" as="geometry"/>
                </mxCell>
                <mxCell id="1812" value="" style="shape=cube;whiteSpace=wrap;html=1;boundedLbl=1;backgroundOutline=1;darkOpacity=0.05;darkOpacity2=0.1;fillColor=#f5f5f5;strokeColor=#000000;size=10;fontColor=#333333;" vertex="1" parent="1">
                    <mxGeometry x="180" y="171" width="30" height="30" as="geometry"/>
                </mxCell>
                <mxCell id="1813" value="" style="shape=cube;whiteSpace=wrap;html=1;boundedLbl=1;backgroundOutline=1;darkOpacity=0.05;darkOpacity2=0.1;fillColor=#f5f5f5;strokeColor=#000000;size=10;fontColor=#333333;" vertex="1" parent="1">
                    <mxGeometry x="190" y="181" width="30" height="30" as="geometry"/>
                </mxCell>
                <mxCell id="1814" value="" style="shape=cube;whiteSpace=wrap;html=1;boundedLbl=1;backgroundOutline=1;darkOpacity=0.05;darkOpacity2=0.1;fillColor=#f5f5f5;strokeColor=#000000;size=10;fontColor=#333333;" vertex="1" parent="1">
                    <mxGeometry x="140" y="151" width="30" height="30" as="geometry"/>
                </mxCell>
                <mxCell id="1815" value="" style="shape=cube;whiteSpace=wrap;html=1;boundedLbl=1;backgroundOutline=1;darkOpacity=0.05;darkOpacity2=0.1;fillColor=#f5f5f5;strokeColor=#000000;size=10;fontColor=#333333;" vertex="1" parent="1">
                    <mxGeometry x="150" y="161" width="30" height="30" as="geometry"/>
                </mxCell>
                <mxCell id="1816" value="" style="shape=cube;whiteSpace=wrap;html=1;boundedLbl=1;backgroundOutline=1;darkOpacity=0.05;darkOpacity2=0.1;fillColor=#f5f5f5;strokeColor=#000000;size=10;fontColor=#333333;" vertex="1" parent="1">
                    <mxGeometry x="150" y="161" width="30" height="30" as="geometry"/>
                </mxCell>
                <mxCell id="1817" value="" style="shape=cube;whiteSpace=wrap;html=1;boundedLbl=1;backgroundOutline=1;darkOpacity=0.05;darkOpacity2=0.1;fillColor=#f5f5f5;strokeColor=#000000;size=10;fontColor=#333333;" vertex="1" parent="1">
                    <mxGeometry x="160" y="171" width="30" height="30" as="geometry"/>
                </mxCell>
                <mxCell id="1818" value="" style="shape=cube;whiteSpace=wrap;html=1;boundedLbl=1;backgroundOutline=1;darkOpacity=0.05;darkOpacity2=0.1;fillColor=#f5f5f5;strokeColor=#000000;size=10;fontColor=#333333;" vertex="1" parent="1">
                    <mxGeometry x="170" y="181" width="30" height="30" as="geometry"/>
                </mxCell>
                <mxCell id="1819" value="" style="shape=cube;whiteSpace=wrap;html=1;boundedLbl=1;backgroundOutline=1;darkOpacity=0.05;darkOpacity2=0.1;fillColor=#f5f5f5;strokeColor=#000000;size=10;fontColor=#333333;" vertex="1" parent="1">
                    <mxGeometry x="120" y="151" width="30" height="30" as="geometry"/>
                </mxCell>
                <mxCell id="1820" value="" style="shape=cube;whiteSpace=wrap;html=1;boundedLbl=1;backgroundOutline=1;darkOpacity=0.05;darkOpacity2=0.1;fillColor=#f5f5f5;strokeColor=#000000;size=10;fontColor=#333333;" vertex="1" parent="1">
                    <mxGeometry x="130" y="161" width="30" height="30" as="geometry"/>
                </mxCell>
                <mxCell id="1821" value="" style="shape=cube;whiteSpace=wrap;html=1;boundedLbl=1;backgroundOutline=1;darkOpacity=0.05;darkOpacity2=0.1;fillColor=#f5f5f5;strokeColor=#000000;size=10;fontColor=#333333;" vertex="1" parent="1">
                    <mxGeometry x="130" y="161" width="30" height="30" as="geometry"/>
                </mxCell>
                <mxCell id="1822" value="" style="shape=cube;whiteSpace=wrap;html=1;boundedLbl=1;backgroundOutline=1;darkOpacity=0.05;darkOpacity2=0.1;fillColor=#f5f5f5;strokeColor=#000000;size=10;fontColor=#333333;" vertex="1" parent="1">
                    <mxGeometry x="140" y="171" width="30" height="30" as="geometry"/>
                </mxCell>
                <mxCell id="1824" value="" style="shape=cube;whiteSpace=wrap;html=1;boundedLbl=1;backgroundOutline=1;darkOpacity=0.05;darkOpacity2=0.1;fillColor=#f5f5f5;strokeColor=#000000;size=10;fontColor=#333333;" vertex="1" parent="1">
                    <mxGeometry x="100" y="151" width="30" height="30" as="geometry"/>
                </mxCell>
                <mxCell id="1823" value="" style="shape=cube;whiteSpace=wrap;html=1;boundedLbl=1;backgroundOutline=1;darkOpacity=0.05;darkOpacity2=0.1;fillColor=#f5f5f5;strokeColor=#000000;size=10;fontColor=#333333;" vertex="1" parent="1">
                    <mxGeometry x="150" y="181" width="30" height="30" as="geometry"/>
                </mxCell>
                <mxCell id="1825" value="" style="shape=cube;whiteSpace=wrap;html=1;boundedLbl=1;backgroundOutline=1;darkOpacity=0.05;darkOpacity2=0.1;fillColor=#f5f5f5;strokeColor=#000000;size=10;fontColor=#333333;" vertex="1" parent="1">
                    <mxGeometry x="110" y="161" width="30" height="30" as="geometry"/>
                </mxCell>
                <mxCell id="1826" value="" style="shape=cube;whiteSpace=wrap;html=1;boundedLbl=1;backgroundOutline=1;darkOpacity=0.05;darkOpacity2=0.1;fillColor=#f5f5f5;strokeColor=#000000;size=10;fontColor=#333333;" vertex="1" parent="1">
                    <mxGeometry x="110" y="161" width="30" height="30" as="geometry"/>
                </mxCell>
                <mxCell id="1827" value="" style="shape=cube;whiteSpace=wrap;html=1;boundedLbl=1;backgroundOutline=1;darkOpacity=0.05;darkOpacity2=0.1;fillColor=#f5f5f5;strokeColor=#000000;size=10;fontColor=#333333;" vertex="1" parent="1">
                    <mxGeometry x="120" y="171" width="30" height="30" as="geometry"/>
                </mxCell>
                <mxCell id="1828" value="" style="shape=cube;whiteSpace=wrap;html=1;boundedLbl=1;backgroundOutline=1;darkOpacity=0.05;darkOpacity2=0.1;fillColor=#f5f5f5;strokeColor=#000000;size=10;fontColor=#333333;" vertex="1" parent="1">
                    <mxGeometry x="130" y="181" width="30" height="30" as="geometry"/>
                </mxCell>
                <mxCell id="1830" value="" style="shape=cube;whiteSpace=wrap;html=1;boundedLbl=1;backgroundOutline=1;darkOpacity=0.05;darkOpacity2=0.1;fillColor=#f5f5f5;strokeColor=#000000;size=10;fontColor=#333333;" vertex="1" parent="1">
                    <mxGeometry x="90" y="161" width="30" height="30" as="geometry"/>
                </mxCell>
                <mxCell id="1829" value="" style="shape=cube;whiteSpace=wrap;html=1;boundedLbl=1;backgroundOutline=1;darkOpacity=0.05;darkOpacity2=0.1;fillColor=#ffe6cc;strokeColor=#000000;size=10;opacity=80;" vertex="1" parent="1">
                    <mxGeometry x="80" y="151" width="30" height="30" as="geometry"/>
                </mxCell>
                <mxCell id="1831" value="" style="shape=cube;whiteSpace=wrap;html=1;boundedLbl=1;backgroundOutline=1;darkOpacity=0.05;darkOpacity2=0.1;fillColor=#ffe6cc;strokeColor=#000000;size=10;opacity=80;" vertex="1" parent="1">
                    <mxGeometry x="90" y="161" width="30" height="30" as="geometry"/>
                </mxCell>
                <mxCell id="1832" value="" style="shape=cube;whiteSpace=wrap;html=1;boundedLbl=1;backgroundOutline=1;darkOpacity=0.05;darkOpacity2=0.1;fillColor=#ffe6cc;strokeColor=#000000;size=10;opacity=80;" vertex="1" parent="1">
                    <mxGeometry x="100" y="171" width="30" height="30" as="geometry"/>
                </mxCell>
                <mxCell id="1833" value="" style="shape=cube;whiteSpace=wrap;html=1;boundedLbl=1;backgroundOutline=1;darkOpacity=0.05;darkOpacity2=0.1;fillColor=#ffe6cc;strokeColor=#000000;size=10;opacity=80;" vertex="1" parent="1">
                    <mxGeometry x="110" y="181" width="30" height="30" as="geometry"/>
                </mxCell>
                <mxCell id="1834" value="" style="shape=cube;whiteSpace=wrap;html=1;boundedLbl=1;backgroundOutline=1;darkOpacity=0.05;darkOpacity2=0.1;fillColor=#f5f5f5;strokeColor=#000000;size=10;fontColor=#333333;" vertex="1" parent="1">
                    <mxGeometry x="60" y="151" width="30" height="30" as="geometry"/>
                </mxCell>
                <mxCell id="1835" value="" style="shape=cube;whiteSpace=wrap;html=1;boundedLbl=1;backgroundOutline=1;darkOpacity=0.05;darkOpacity2=0.1;fillColor=#f5f5f5;strokeColor=#000000;size=10;fontColor=#333333;" vertex="1" parent="1">
                    <mxGeometry x="70" y="161" width="30" height="30" as="geometry"/>
                </mxCell>
                <mxCell id="1836" value="" style="shape=cube;whiteSpace=wrap;html=1;boundedLbl=1;backgroundOutline=1;darkOpacity=0.05;darkOpacity2=0.1;fillColor=#f5f5f5;strokeColor=#000000;size=10;fontColor=#333333;" vertex="1" parent="1">
                    <mxGeometry x="70" y="161" width="30" height="30" as="geometry"/>
                </mxCell>
                <mxCell id="1837" value="" style="shape=cube;whiteSpace=wrap;html=1;boundedLbl=1;backgroundOutline=1;darkOpacity=0.05;darkOpacity2=0.1;fillColor=#f5f5f5;strokeColor=#000000;size=10;fontColor=#333333;" vertex="1" parent="1">
                    <mxGeometry x="80" y="171" width="30" height="30" as="geometry"/>
                </mxCell>
                <mxCell id="1838" value="" style="shape=cube;whiteSpace=wrap;html=1;boundedLbl=1;backgroundOutline=1;darkOpacity=0.05;darkOpacity2=0.1;fillColor=#f5f5f5;strokeColor=#000000;size=10;fontColor=#333333;" vertex="1" parent="1">
                    <mxGeometry x="90" y="181" width="30" height="30" as="geometry"/>
                </mxCell>
                <mxCell id="1844" style="edgeStyle=orthogonalEdgeStyle;html=1;exitX=0;exitY=0;exitDx=10;exitDy=30;exitPerimeter=0;strokeColor=#000000;strokeWidth=1;endArrow=none;endFill=0;rounded=0;" edge="1" parent="1">
                    <mxGeometry relative="1" as="geometry">
                        <mxPoint x="139.97" y="310" as="sourcePoint"/>
                        <mxPoint x="200" y="310" as="targetPoint"/>
                        <Array as="points">
                            <mxPoint x="140" y="320"/>
                            <mxPoint x="200" y="320"/>
                        </Array>
                    </mxGeometry>
                </mxCell>
                <mxCell id="1847" value="s&lt;sub style=&quot;&quot;&gt;&lt;font style=&quot;font-size: 12px;&quot;&gt;1&lt;/font&gt;&lt;/sub&gt;&lt;sub style=&quot;font-size: 20px;&quot;&gt;&amp;nbsp;&lt;/sub&gt;= 3" style="text;html=1;align=center;verticalAlign=middle;resizable=0;points=[];autosize=1;strokeColor=none;fillColor=none;fontFamily=Times New Roman;fontSize=20;" vertex="1" parent="1">
                    <mxGeometry x="132" y="316" width="70" height="40" as="geometry"/>
                </mxCell>
                <mxCell id="1848" value="" style="shape=cube;whiteSpace=wrap;html=1;boundedLbl=1;backgroundOutline=1;darkOpacity=0.05;darkOpacity2=0.1;size=10;fillColor=#f8cecc;strokeColor=#000000;" vertex="1" parent="1">
                    <mxGeometry x="371" y="244" width="30" height="30" as="geometry"/>
                </mxCell>
                <mxCell id="1849" value="" style="shape=cube;whiteSpace=wrap;html=1;boundedLbl=1;backgroundOutline=1;darkOpacity=0.05;darkOpacity2=0.1;size=10;fillColor=#f8cecc;strokeColor=#000000;" vertex="1" parent="1">
                    <mxGeometry x="381" y="254" width="30" height="30" as="geometry"/>
                </mxCell>
                <mxCell id="1850" value="" style="shape=cube;whiteSpace=wrap;html=1;boundedLbl=1;backgroundOutline=1;darkOpacity=0.05;darkOpacity2=0.1;size=10;fillColor=#f8cecc;strokeColor=#000000;" vertex="1" parent="1">
                    <mxGeometry x="381" y="254" width="30" height="30" as="geometry"/>
                </mxCell>
                <mxCell id="1851" value="" style="shape=cube;whiteSpace=wrap;html=1;boundedLbl=1;backgroundOutline=1;darkOpacity=0.05;darkOpacity2=0.1;size=10;fillColor=#f8cecc;strokeColor=#000000;" vertex="1" parent="1">
                    <mxGeometry x="391" y="264" width="30" height="30" as="geometry"/>
                </mxCell>
                <mxCell id="1852" value="" style="shape=cube;whiteSpace=wrap;html=1;boundedLbl=1;backgroundOutline=1;darkOpacity=0.05;darkOpacity2=0.1;size=10;fillColor=#f8cecc;strokeColor=#000000;" vertex="1" parent="1">
                    <mxGeometry x="401" y="274" width="30" height="30" as="geometry"/>
                </mxCell>
                <mxCell id="1853" style="edgeStyle=none;html=1;exitX=0;exitY=0;exitDx=20;exitDy=0;exitPerimeter=0;entryX=0;entryY=0;entryDx=0;entryDy=0;entryPerimeter=0;strokeWidth=2;endArrow=none;endFill=0;fillColor=#f8cecc;strokeColor=#b85450;dashed=1;dashPattern=1 1;" edge="1" parent="1" source="1848" target="1906">
                    <mxGeometry relative="1" as="geometry"/>
                </mxCell>
                <mxCell id="1854" value="" style="shape=cube;whiteSpace=wrap;html=1;boundedLbl=1;backgroundOutline=1;darkOpacity=0.05;darkOpacity2=0.1;size=10;fillColor=#f8cecc;strokeColor=#000000;" vertex="1" parent="1">
                    <mxGeometry x="351" y="244" width="30" height="30" as="geometry"/>
                </mxCell>
                <mxCell id="1855" value="" style="shape=cube;whiteSpace=wrap;html=1;boundedLbl=1;backgroundOutline=1;darkOpacity=0.05;darkOpacity2=0.1;size=10;fillColor=#f8cecc;strokeColor=#000000;" vertex="1" parent="1">
                    <mxGeometry x="361" y="254" width="30" height="30" as="geometry"/>
                </mxCell>
                <mxCell id="1856" value="" style="shape=cube;whiteSpace=wrap;html=1;boundedLbl=1;backgroundOutline=1;darkOpacity=0.05;darkOpacity2=0.1;size=10;fillColor=#f8cecc;strokeColor=#000000;" vertex="1" parent="1">
                    <mxGeometry x="361" y="254" width="30" height="30" as="geometry"/>
                </mxCell>
                <mxCell id="1857" value="" style="shape=cube;whiteSpace=wrap;html=1;boundedLbl=1;backgroundOutline=1;darkOpacity=0.05;darkOpacity2=0.1;size=10;fillColor=#f8cecc;strokeColor=#000000;" vertex="1" parent="1">
                    <mxGeometry x="371" y="264" width="30" height="30" as="geometry"/>
                </mxCell>
                <mxCell id="1858" value="" style="shape=cube;whiteSpace=wrap;html=1;boundedLbl=1;backgroundOutline=1;darkOpacity=0.05;darkOpacity2=0.1;size=10;fillColor=#f8cecc;strokeColor=#000000;" vertex="1" parent="1">
                    <mxGeometry x="381" y="274" width="30" height="30" as="geometry"/>
                </mxCell>
                <mxCell id="1859" value="" style="shape=cube;whiteSpace=wrap;html=1;boundedLbl=1;backgroundOutline=1;darkOpacity=0.05;darkOpacity2=0.1;size=10;fillColor=#f8cecc;strokeColor=#000000;opacity=80;" vertex="1" parent="1">
                    <mxGeometry x="331" y="244" width="30" height="30" as="geometry"/>
                </mxCell>
                <mxCell id="1860" value="" style="shape=cube;whiteSpace=wrap;html=1;boundedLbl=1;backgroundOutline=1;darkOpacity=0.05;darkOpacity2=0.1;size=10;fillColor=#f8cecc;strokeColor=#000000;" vertex="1" parent="1">
                    <mxGeometry x="341" y="254" width="30" height="30" as="geometry"/>
                </mxCell>
                <mxCell id="1861" value="" style="shape=cube;whiteSpace=wrap;html=1;boundedLbl=1;backgroundOutline=1;darkOpacity=0.05;darkOpacity2=0.1;size=10;fillColor=#f8cecc;strokeColor=#000000;opacity=80;" vertex="1" parent="1">
                    <mxGeometry x="341" y="254" width="30" height="30" as="geometry"/>
                </mxCell>
                <mxCell id="1862" value="" style="shape=cube;whiteSpace=wrap;html=1;boundedLbl=1;backgroundOutline=1;darkOpacity=0.05;darkOpacity2=0.1;size=10;fillColor=#f8cecc;strokeColor=#000000;opacity=80;" vertex="1" parent="1">
                    <mxGeometry x="351" y="264" width="30" height="30" as="geometry"/>
                </mxCell>
                <mxCell id="1863" style="edgeStyle=none;html=1;strokeWidth=2;endArrow=none;endFill=0;fillColor=#f8cecc;strokeColor=#b85450;entryX=1;entryY=1;entryDx=0;entryDy=0;entryPerimeter=0;dashed=1;dashPattern=1 1;exitX=0;exitY=0;exitDx=30;exitDy=10;exitPerimeter=0;" edge="1" parent="1" source="1852" target="1906">
                    <mxGeometry relative="1" as="geometry">
                        <mxPoint x="351" y="199" as="targetPoint"/>
                    </mxGeometry>
                </mxCell>
                <mxCell id="1864" value="" style="shape=cube;whiteSpace=wrap;html=1;boundedLbl=1;backgroundOutline=1;darkOpacity=0.05;darkOpacity2=0.1;size=10;fillColor=#f8cecc;strokeColor=#000000;opacity=80;" vertex="1" parent="1">
                    <mxGeometry x="361" y="274" width="30" height="30" as="geometry"/>
                </mxCell>
                <mxCell id="1865" value="" style="shape=cube;whiteSpace=wrap;html=1;boundedLbl=1;backgroundOutline=1;darkOpacity=0.05;darkOpacity2=0.1;size=10;fillColor=#f8cecc;strokeColor=#000000;opacity=80;" vertex="1" parent="1">
                    <mxGeometry x="311" y="244" width="30" height="30" as="geometry"/>
                </mxCell>
                <mxCell id="1866" value="" style="shape=cube;whiteSpace=wrap;html=1;boundedLbl=1;backgroundOutline=1;darkOpacity=0.05;darkOpacity2=0.1;size=10;strokeColor=#000000;" vertex="1" parent="1">
                    <mxGeometry x="321" y="254" width="30" height="30" as="geometry"/>
                </mxCell>
                <mxCell id="1867" value="" style="shape=cube;whiteSpace=wrap;html=1;boundedLbl=1;backgroundOutline=1;darkOpacity=0.05;darkOpacity2=0.1;size=10;fillColor=#f8cecc;strokeColor=#000000;opacity=80;" vertex="1" parent="1">
                    <mxGeometry x="321" y="254" width="30" height="30" as="geometry"/>
                </mxCell>
                <mxCell id="1868" value="" style="shape=cube;whiteSpace=wrap;html=1;boundedLbl=1;backgroundOutline=1;darkOpacity=0.05;darkOpacity2=0.1;size=10;fillColor=#f8cecc;strokeColor=#000000;opacity=80;" vertex="1" parent="1">
                    <mxGeometry x="331" y="264" width="30" height="30" as="geometry"/>
                </mxCell>
                <mxCell id="1869" value="" style="shape=cube;whiteSpace=wrap;html=1;boundedLbl=1;backgroundOutline=1;darkOpacity=0.05;darkOpacity2=0.1;size=10;fillColor=#f8cecc;strokeColor=#000000;opacity=80;" vertex="1" parent="1">
                    <mxGeometry x="341" y="274" width="30" height="30" as="geometry"/>
                </mxCell>
                <mxCell id="1870" style="edgeStyle=none;html=1;exitX=0;exitY=0;exitDx=0;exitDy=0;exitPerimeter=0;entryX=0;entryY=0;entryDx=20;entryDy=0;entryPerimeter=0;fillColor=#f8cecc;strokeColor=#b85450;endArrow=none;endFill=0;strokeWidth=2;dashed=1;dashPattern=1 1;" edge="1" parent="1" source="1871" target="1907">
                    <mxGeometry relative="1" as="geometry"/>
                </mxCell>
                <mxCell id="1871" value="" style="shape=cube;whiteSpace=wrap;html=1;boundedLbl=1;backgroundOutline=1;darkOpacity=0.05;darkOpacity2=0.1;size=10;fillColor=#f8cecc;strokeColor=#000000;opacity=80;" vertex="1" parent="1">
                    <mxGeometry x="291" y="244" width="30" height="30" as="geometry"/>
                </mxCell>
                <mxCell id="1872" value="" style="shape=cube;whiteSpace=wrap;html=1;boundedLbl=1;backgroundOutline=1;darkOpacity=0.05;darkOpacity2=0.1;size=10;strokeColor=#000000;" vertex="1" parent="1">
                    <mxGeometry x="301" y="254" width="30" height="30" as="geometry"/>
                </mxCell>
                <mxCell id="1873" value="" style="shape=cube;whiteSpace=wrap;html=1;boundedLbl=1;backgroundOutline=1;darkOpacity=0.05;darkOpacity2=0.1;size=10;fillColor=#f8cecc;strokeColor=#000000;opacity=80;" vertex="1" parent="1">
                    <mxGeometry x="301" y="254" width="30" height="30" as="geometry"/>
                </mxCell>
                <mxCell id="1874" value="" style="shape=cube;whiteSpace=wrap;html=1;boundedLbl=1;backgroundOutline=1;darkOpacity=0.05;darkOpacity2=0.1;size=10;fillColor=#f8cecc;strokeColor=#000000;opacity=80;" vertex="1" parent="1">
                    <mxGeometry x="311" y="264" width="30" height="30" as="geometry"/>
                </mxCell>
                <mxCell id="1875" value="" style="shape=cube;whiteSpace=wrap;html=1;boundedLbl=1;backgroundOutline=1;darkOpacity=0.05;darkOpacity2=0.1;size=10;fillColor=#f8cecc;strokeColor=#000000;opacity=80;" vertex="1" parent="1">
                    <mxGeometry x="321" y="274" width="30" height="30" as="geometry"/>
                </mxCell>
                <mxCell id="1876" value="" style="shape=cube;whiteSpace=wrap;html=1;boundedLbl=1;backgroundOutline=1;darkOpacity=0.05;darkOpacity2=0.1;size=10;strokeColor=#000000;" vertex="1" parent="1">
                    <mxGeometry x="271" y="244" width="30" height="30" as="geometry"/>
                </mxCell>
                <mxCell id="1877" value="" style="shape=cube;whiteSpace=wrap;html=1;boundedLbl=1;backgroundOutline=1;darkOpacity=0.05;darkOpacity2=0.1;size=10;strokeColor=#000000;" vertex="1" parent="1">
                    <mxGeometry x="281" y="254" width="30" height="30" as="geometry"/>
                </mxCell>
                <mxCell id="1878" value="" style="shape=cube;whiteSpace=wrap;html=1;boundedLbl=1;backgroundOutline=1;darkOpacity=0.05;darkOpacity2=0.1;size=10;strokeColor=#000000;" vertex="1" parent="1">
                    <mxGeometry x="281" y="254" width="30" height="30" as="geometry"/>
                </mxCell>
                <mxCell id="1879" value="" style="shape=cube;whiteSpace=wrap;html=1;boundedLbl=1;backgroundOutline=1;darkOpacity=0.05;darkOpacity2=0.1;size=10;strokeColor=#000000;" vertex="1" parent="1">
                    <mxGeometry x="291" y="264" width="30" height="30" as="geometry"/>
                </mxCell>
                <mxCell id="1880" style="edgeStyle=none;html=1;exitX=0;exitY=0;exitDx=30;exitDy=10;exitPerimeter=0;entryX=0;entryY=0;entryDx=10;entryDy=30;entryPerimeter=0;endArrow=none;endFill=0;fillColor=#f8cecc;strokeColor=#b85450;strokeWidth=2;dashed=1;dashPattern=1 1;" edge="1" parent="1" source="1881" target="1906">
                    <mxGeometry relative="1" as="geometry"/>
                </mxCell>
                <mxCell id="1881" value="" style="shape=cube;whiteSpace=wrap;html=1;boundedLbl=1;backgroundOutline=1;darkOpacity=0.05;darkOpacity2=0.1;size=10;strokeColor=#000000;" vertex="1" parent="1">
                    <mxGeometry x="301" y="274" width="30" height="30" as="geometry"/>
                </mxCell>
                <mxCell id="1882" value="" style="shape=cube;whiteSpace=wrap;html=1;boundedLbl=1;backgroundOutline=1;darkOpacity=0.05;darkOpacity2=0.1;fillColor=#f5f5f5;strokeColor=#000000;size=10;fontColor=#333333;" vertex="1" parent="1">
                    <mxGeometry x="351" y="150" width="30" height="30" as="geometry"/>
                </mxCell>
                <mxCell id="1883" value="" style="shape=cube;whiteSpace=wrap;html=1;boundedLbl=1;backgroundOutline=1;darkOpacity=0.05;darkOpacity2=0.1;fillColor=#f5f5f5;strokeColor=#000000;size=10;fontColor=#333333;" vertex="1" parent="1">
                    <mxGeometry x="361" y="160" width="30" height="30" as="geometry"/>
                </mxCell>
                <mxCell id="1884" value="" style="shape=cube;whiteSpace=wrap;html=1;boundedLbl=1;backgroundOutline=1;darkOpacity=0.05;darkOpacity2=0.1;fillColor=#f5f5f5;strokeColor=#000000;size=10;fontColor=#333333;" vertex="1" parent="1">
                    <mxGeometry x="361" y="160" width="30" height="30" as="geometry"/>
                </mxCell>
                <mxCell id="1885" value="" style="shape=cube;whiteSpace=wrap;html=1;boundedLbl=1;backgroundOutline=1;darkOpacity=0.05;darkOpacity2=0.1;fillColor=#f5f5f5;strokeColor=#000000;size=10;fontColor=#333333;" vertex="1" parent="1">
                    <mxGeometry x="371" y="170" width="30" height="30" as="geometry"/>
                </mxCell>
                <mxCell id="1886" value="" style="shape=cube;whiteSpace=wrap;html=1;boundedLbl=1;backgroundOutline=1;darkOpacity=0.05;darkOpacity2=0.1;fillColor=#f5f5f5;strokeColor=#000000;size=10;fontColor=#333333;" vertex="1" parent="1">
                    <mxGeometry x="381" y="180" width="30" height="30" as="geometry"/>
                </mxCell>
                <mxCell id="1887" value="" style="shape=cube;whiteSpace=wrap;html=1;boundedLbl=1;backgroundOutline=1;darkOpacity=0.05;darkOpacity2=0.1;fillColor=#f5f5f5;strokeColor=#000000;size=10;fontColor=#333333;" vertex="1" parent="1">
                    <mxGeometry x="331" y="150" width="30" height="30" as="geometry"/>
                </mxCell>
                <mxCell id="1888" value="" style="shape=cube;whiteSpace=wrap;html=1;boundedLbl=1;backgroundOutline=1;darkOpacity=0.05;darkOpacity2=0.1;fillColor=#f5f5f5;strokeColor=#000000;size=10;fontColor=#333333;" vertex="1" parent="1">
                    <mxGeometry x="341" y="160" width="30" height="30" as="geometry"/>
                </mxCell>
                <mxCell id="1889" value="" style="shape=cube;whiteSpace=wrap;html=1;boundedLbl=1;backgroundOutline=1;darkOpacity=0.05;darkOpacity2=0.1;fillColor=#f5f5f5;strokeColor=#000000;size=10;fontColor=#333333;" vertex="1" parent="1">
                    <mxGeometry x="341" y="160" width="30" height="30" as="geometry"/>
                </mxCell>
                <mxCell id="1890" value="" style="shape=cube;whiteSpace=wrap;html=1;boundedLbl=1;backgroundOutline=1;darkOpacity=0.05;darkOpacity2=0.1;fillColor=#f5f5f5;strokeColor=#000000;size=10;fontColor=#333333;" vertex="1" parent="1">
                    <mxGeometry x="351" y="170" width="30" height="30" as="geometry"/>
                </mxCell>
                <mxCell id="1891" value="" style="shape=cube;whiteSpace=wrap;html=1;boundedLbl=1;backgroundOutline=1;darkOpacity=0.05;darkOpacity2=0.1;fillColor=#f5f5f5;strokeColor=#000000;size=10;fontColor=#333333;" vertex="1" parent="1">
                    <mxGeometry x="361" y="180" width="30" height="30" as="geometry"/>
                </mxCell>
                <mxCell id="1892" value="" style="shape=cube;whiteSpace=wrap;html=1;boundedLbl=1;backgroundOutline=1;darkOpacity=0.05;darkOpacity2=0.1;fillColor=#f5f5f5;strokeColor=#000000;size=10;fontColor=#333333;" vertex="1" parent="1">
                    <mxGeometry x="311" y="150" width="30" height="30" as="geometry"/>
                </mxCell>
                <mxCell id="1893" value="" style="shape=cube;whiteSpace=wrap;html=1;boundedLbl=1;backgroundOutline=1;darkOpacity=0.05;darkOpacity2=0.1;fillColor=#f5f5f5;strokeColor=#000000;size=10;fontColor=#333333;" vertex="1" parent="1">
                    <mxGeometry x="321" y="160" width="30" height="30" as="geometry"/>
                </mxCell>
                <mxCell id="1894" value="" style="shape=cube;whiteSpace=wrap;html=1;boundedLbl=1;backgroundOutline=1;darkOpacity=0.05;darkOpacity2=0.1;fillColor=#f5f5f5;strokeColor=#000000;size=10;fontColor=#333333;" vertex="1" parent="1">
                    <mxGeometry x="321" y="160" width="30" height="30" as="geometry"/>
                </mxCell>
                <mxCell id="1895" value="" style="shape=cube;whiteSpace=wrap;html=1;boundedLbl=1;backgroundOutline=1;darkOpacity=0.05;darkOpacity2=0.1;fillColor=#f5f5f5;strokeColor=#000000;size=10;fontColor=#333333;" vertex="1" parent="1">
                    <mxGeometry x="331" y="170" width="30" height="30" as="geometry"/>
                </mxCell>
                <mxCell id="1896" value="" style="shape=cube;whiteSpace=wrap;html=1;boundedLbl=1;backgroundOutline=1;darkOpacity=0.05;darkOpacity2=0.1;fillColor=#f5f5f5;strokeColor=#000000;size=10;fontColor=#333333;" vertex="1" parent="1">
                    <mxGeometry x="291" y="150" width="30" height="30" as="geometry"/>
                </mxCell>
                <mxCell id="1897" value="" style="shape=cube;whiteSpace=wrap;html=1;boundedLbl=1;backgroundOutline=1;darkOpacity=0.05;darkOpacity2=0.1;fillColor=#f5f5f5;strokeColor=#000000;size=10;fontColor=#333333;" vertex="1" parent="1">
                    <mxGeometry x="341" y="180" width="30" height="30" as="geometry"/>
                </mxCell>
                <mxCell id="1898" value="" style="shape=cube;whiteSpace=wrap;html=1;boundedLbl=1;backgroundOutline=1;darkOpacity=0.05;darkOpacity2=0.1;fillColor=#f5f5f5;strokeColor=#000000;size=10;fontColor=#333333;" vertex="1" parent="1">
                    <mxGeometry x="301" y="160" width="30" height="30" as="geometry"/>
                </mxCell>
                <mxCell id="1899" value="" style="shape=cube;whiteSpace=wrap;html=1;boundedLbl=1;backgroundOutline=1;darkOpacity=0.05;darkOpacity2=0.1;fillColor=#f5f5f5;strokeColor=#000000;size=10;fontColor=#333333;" vertex="1" parent="1">
                    <mxGeometry x="301" y="160" width="30" height="30" as="geometry"/>
                </mxCell>
                <mxCell id="1900" value="" style="shape=cube;whiteSpace=wrap;html=1;boundedLbl=1;backgroundOutline=1;darkOpacity=0.05;darkOpacity2=0.1;fillColor=#f5f5f5;strokeColor=#000000;size=10;fontColor=#333333;" vertex="1" parent="1">
                    <mxGeometry x="311" y="170" width="30" height="30" as="geometry"/>
                </mxCell>
                <mxCell id="1901" value="" style="shape=cube;whiteSpace=wrap;html=1;boundedLbl=1;backgroundOutline=1;darkOpacity=0.05;darkOpacity2=0.1;fillColor=#f5f5f5;strokeColor=#000000;size=10;fontColor=#333333;" vertex="1" parent="1">
                    <mxGeometry x="321" y="180" width="30" height="30" as="geometry"/>
                </mxCell>
                <mxCell id="1902" value="" style="shape=cube;whiteSpace=wrap;html=1;boundedLbl=1;backgroundOutline=1;darkOpacity=0.05;darkOpacity2=0.1;fillColor=#f5f5f5;strokeColor=#000000;size=10;fontColor=#333333;" vertex="1" parent="1">
                    <mxGeometry x="281" y="160" width="30" height="30" as="geometry"/>
                </mxCell>
                <mxCell id="1903" value="" style="shape=cube;whiteSpace=wrap;html=1;boundedLbl=1;backgroundOutline=1;darkOpacity=0.05;darkOpacity2=0.1;fillColor=#f8cecc;strokeColor=#000000;size=10;opacity=80;" vertex="1" parent="1">
                    <mxGeometry x="271" y="150" width="30" height="30" as="geometry"/>
                </mxCell>
                <mxCell id="1904" value="" style="shape=cube;whiteSpace=wrap;html=1;boundedLbl=1;backgroundOutline=1;darkOpacity=0.05;darkOpacity2=0.1;fillColor=#f8cecc;strokeColor=#000000;size=10;opacity=80;" vertex="1" parent="1">
                    <mxGeometry x="281" y="160" width="30" height="30" as="geometry"/>
                </mxCell>
                <mxCell id="1905" value="" style="shape=cube;whiteSpace=wrap;html=1;boundedLbl=1;backgroundOutline=1;darkOpacity=0.05;darkOpacity2=0.1;fillColor=#f8cecc;strokeColor=#000000;size=10;opacity=80;" vertex="1" parent="1">
                    <mxGeometry x="291" y="170" width="30" height="30" as="geometry"/>
                </mxCell>
                <mxCell id="1906" value="" style="shape=cube;whiteSpace=wrap;html=1;boundedLbl=1;backgroundOutline=1;darkOpacity=0.05;darkOpacity2=0.1;fillColor=#f8cecc;strokeColor=#000000;size=10;opacity=80;" vertex="1" parent="1">
                    <mxGeometry x="301" y="180" width="30" height="30" as="geometry"/>
                </mxCell>
                <mxCell id="1907" value="" style="shape=cube;whiteSpace=wrap;html=1;boundedLbl=1;backgroundOutline=1;darkOpacity=0.05;darkOpacity2=0.1;fillColor=#f5f5f5;strokeColor=#000000;size=10;fontColor=#333333;" vertex="1" parent="1">
                    <mxGeometry x="251" y="150" width="30" height="30" as="geometry"/>
                </mxCell>
                <mxCell id="1908" value="" style="shape=cube;whiteSpace=wrap;html=1;boundedLbl=1;backgroundOutline=1;darkOpacity=0.05;darkOpacity2=0.1;fillColor=#f5f5f5;strokeColor=#000000;size=10;fontColor=#333333;" vertex="1" parent="1">
                    <mxGeometry x="261" y="160" width="30" height="30" as="geometry"/>
                </mxCell>
                <mxCell id="1909" value="" style="shape=cube;whiteSpace=wrap;html=1;boundedLbl=1;backgroundOutline=1;darkOpacity=0.05;darkOpacity2=0.1;fillColor=#f5f5f5;strokeColor=#000000;size=10;fontColor=#333333;" vertex="1" parent="1">
                    <mxGeometry x="261" y="160" width="30" height="30" as="geometry"/>
                </mxCell>
                <mxCell id="1910" value="" style="shape=cube;whiteSpace=wrap;html=1;boundedLbl=1;backgroundOutline=1;darkOpacity=0.05;darkOpacity2=0.1;fillColor=#f5f5f5;strokeColor=#000000;size=10;fontColor=#333333;" vertex="1" parent="1">
                    <mxGeometry x="271" y="170" width="30" height="30" as="geometry"/>
                </mxCell>
                <mxCell id="1911" value="" style="shape=cube;whiteSpace=wrap;html=1;boundedLbl=1;backgroundOutline=1;darkOpacity=0.05;darkOpacity2=0.1;fillColor=#f5f5f5;strokeColor=#000000;size=10;fontColor=#333333;" vertex="1" parent="1">
                    <mxGeometry x="281" y="180" width="30" height="30" as="geometry"/>
                </mxCell>
                <mxCell id="1912" style="edgeStyle=orthogonalEdgeStyle;html=1;exitX=0;exitY=0;exitDx=10;exitDy=30;exitPerimeter=0;strokeColor=#000000;strokeWidth=1;endArrow=none;endFill=0;rounded=0;" edge="1" parent="1">
                    <mxGeometry relative="1" as="geometry">
                        <mxPoint x="330.97" y="308.9999999999999" as="sourcePoint"/>
                        <mxPoint x="430" y="309" as="targetPoint"/>
                        <Array as="points">
                            <mxPoint x="331" y="319"/>
                            <mxPoint x="430" y="319"/>
                        </Array>
                    </mxGeometry>
                </mxCell>
                <mxCell id="1913" value="s&lt;sub style=&quot;&quot;&gt;&lt;font style=&quot;font-size: 12px;&quot;&gt;2&lt;/font&gt;&lt;/sub&gt;&lt;sub style=&quot;font-size: 20px;&quot;&gt;&amp;nbsp;&lt;/sub&gt;= 5" style="text;html=1;align=center;verticalAlign=middle;resizable=0;points=[];autosize=1;strokeColor=none;fillColor=none;fontFamily=Times New Roman;fontSize=20;" vertex="1" parent="1">
                    <mxGeometry x="341" y="316" width="70" height="40" as="geometry"/>
                </mxCell>
            </root>
        </mxGraphModel>
    </diagram>
</mxfile>